<?xml version="1.0" encoding="utf-8"?>
<!-- Generator: Adobe Illustrator 21.1.0, SVG Export Plug-In . SVG Version: 6.00 Build 0)  -->
<svg version="1.1" id="Layer_1" xmlns="http://www.w3.org/2000/svg" xmlns:xlink="http://www.w3.org/1999/xlink" x="0px" y="0px"
	 viewBox="0 0 40 40" style="enable-background:new 0 0 40 40;" xml:space="preserve">
<g fill="rgba(105, 58, 145, 0.5)">
	<path d="M14.4,13.6c-0.2-0.2-0.5-0.2-0.7,0s-0.2,0.5,0,0.7l12,12c0.1,0.1,0.2,0.1,0.4,0.1s0.3,0,0.4-0.1c0.2-0.2,0.2-0.5,0-0.7
		L14.4,13.6z"/>
	<path d="M17.6,21.6l-4,4c-0.2,0.2-0.2,0.5,0,0.7c0.1,0.1,0.2,0.1,0.4,0.1s0.3,0,0.4-0.1l4-4c0.2-0.2,0.2-0.5,0-0.7
		S17.8,21.5,17.6,21.6z"/>
	<path d="M22,18.5c0.1,0,0.3,0,0.4-0.1l4-4c0.2-0.2,0.2-0.5,0-0.7s-0.5-0.2-0.7,0l-4,4c-0.2,0.2-0.2,0.5,0,0.7
		C21.7,18.5,21.9,18.5,22,18.5z"/>
</g>
</svg>
