<?xml version="1.0" encoding="utf-8"?>
<!-- Generator: Adobe Illustrator 21.1.0, SVG Export Plug-In . SVG Version: 6.00 Build 0)  -->
<svg version="1.1" id="Layer_1" xmlns="http://www.w3.org/2000/svg" xmlns:xlink="http://www.w3.org/1999/xlink" x="0px" y="0px"
	 viewBox="0 0 40 40" style="enable-background:new 0 0 40 40;" xml:space="preserve">
<g fill="rgba(105, 58, 145, 0.5)">
	<path d="M20.5,11.5c0-0.3-0.2-0.5-0.5-0.5s-0.5,0.2-0.5,0.5v17c0,0.1,0.1,0.3,0.1,0.4S19.9,29,20,29c0.3,0,0.5-0.2,0.5-0.5V11.5z"
		/>
	<path d="M17.2,19.5h-5.7c-0.3,0-0.5,0.2-0.5,0.5c0,0.1,0.1,0.3,0.1,0.4s0.2,0.1,0.4,0.1h5.7c0.3,0,0.5-0.2,0.5-0.5
		S17.4,19.5,17.2,19.5z"/>
	<path d="M22.5,20.4c0.1,0.1,0.2,0.1,0.4,0.1h5.7c0.3,0,0.5-0.2,0.5-0.5s-0.2-0.5-0.5-0.5h-5.7c-0.3,0-0.5,0.2-0.5,0.5
		C22.3,20.1,22.4,20.3,22.5,20.4z"/>
</g>
</svg>
